<?xml version="1.0" encoding="utf-8"?>
<!-- Generator: Adobe Illustrator 26.0.0, SVG Export Plug-In . SVG Version: 6.00 Build 0)  -->
<svg version="1.1" id="Capa_1" xmlns="http://www.w3.org/2000/svg" xmlns:xlink="http://www.w3.org/1999/xlink" x="0px" y="0px"
	 viewBox="0 0 512 512" style="enable-background:new 0 0 512 512;" xml:space="preserve">
<style type="text/css">
	.st0{fill:#FFFFFF;}
	.st1{fill:#FF9100;}
</style>
<rect x="102" y="120" class="st0" width="313" height="293"/>
<path class="st1" d="M256,512c141.4,0,256-114.6,256-256S397.4,0,256,0S0,114.6,0,256S114.6,512,256,512z M176.4,240
	c-17.7,0-32-14.3-32-32s14.3-32,32-32s32,14.3,32,32S194.1,240,176.4,240z M368.4,208c0,17.7-14.3,32-32,32s-32-14.3-32-32
	s14.3-32,32-32S368.4,190.3,368.4,208z M160,336h192c8.8,0,16,7.2,16,16s-7.2,16-16,16H160c-8.8,0-16-7.2-16-16S151.2,336,160,336z"
	/>
</svg>
