<?xml version="1.0" encoding="utf-8"?>
<!-- Generator: Adobe Illustrator 26.0.0, SVG Export Plug-In . SVG Version: 6.00 Build 0)  -->
<svg version="1.1" id="Capa_1" xmlns="http://www.w3.org/2000/svg" xmlns:xlink="http://www.w3.org/1999/xlink" x="0px" y="0px"
	 viewBox="0 0 512 512" style="enable-background:new 0 0 512 512;" xml:space="preserve">
<style type="text/css">
	.st0{fill:#FFFFFF;}
	.st1{fill:#ED144C;}
</style>
<path class="st0" d="M71,113c0,0-20,38-6,82s-6.9,125-5,139c2,14,10,54,27,73s34,42,63,47s170,9,170,9l86-33c0,0,36-32,41-72
	s5-112,6-129s6-79,0-93s-14-46-40-58s-86-22-113-11s-101,5-124,5S108,35,71,113z"/>
<path class="st1" d="M256,512c141.4,0,256-114.6,256-256S397.4,0,256,0S0,114.6,0,256S114.6,512,256,512z M100.5,100.5
	c18.1-18.1,47.2-18.1,65.1,0l90.3,90.3l90.3-90.3c18.1-18.1,47.2-18.1,65.1,0s18.1,47.2,0,65.1L321,255.9l90.3,90.3
	c18.1,18.1,18.1,47.2,0,65.1s-47.2,18.1-65.1,0L255.9,321l-90.3,90.3c-18.1,18.1-47.2,18.1-65.1,0s-18.1-47.2,0-65.1l90.3-90.3
	l-90.3-90.3C82.5,147.6,82.5,118.4,100.5,100.5z"/>
</svg>
