<?xml version="1.0" encoding="utf-8"?>
<!-- Generator: Adobe Illustrator 26.0.0, SVG Export Plug-In . SVG Version: 6.00 Build 0)  -->
<svg version="1.1" id="Capa_1" xmlns="http://www.w3.org/2000/svg" xmlns:xlink="http://www.w3.org/1999/xlink" x="0px" y="0px"
	 viewBox="0 0 512 512" style="enable-background:new 0 0 512 512;" xml:space="preserve">
<style type="text/css">
	.st0{fill:#FFFFFF;}
	.st1{fill:#FFD700;}
</style>
<g id="Capa_2_00000031921032522982218630000011243945414556080038_">
</g>
<g id="Capa_1_00000056417577964067062580000007888787541002589312_">
	<path class="st0" d="M4.7,130.3c0-34.7,28.2-62.8,62.8-62.8h377c34.7,0,62.8,28.2,62.8,62.8v251.3c0,34.7-28.2,62.8-62.8,62.8h-377
		c-34.7,0-62.8-28.2-62.8-62.8C4.7,381.6,4.7,130.3,4.7,130.3z"/>
	<polygon class="st0" points="61,108 37,139 37,379 49,407 451,407 473,384 473,128 441,92 	"/>
	<path class="st1" d="M76,121c-8.2,0-15,6.8-15,15v20.7l161.7,132.8c19.4,15.9,47.2,15.9,66.7,0L451,156.7V136c0-8.2-6.8-15-15-15
		H76z M61,214.9V376c0,8.2,6.8,15,15,15h360c8.2,0,15-6.8,15-15V214.9L317.9,324.2c-36,29.5-87.8,29.5-123.8,0L61,214.9z M16,136
		c0-33.1,26.9-60,60-60h360c33.1,0,60,26.9,60,60v240c0,33.1-26.9,60-60,60H76c-33.1,0-60-26.9-60-60V136z"/>
</g>
<g id="Capa_3">
</g>
</svg>
