<?xml version="1.0" encoding="utf-8"?>
<!-- Generator: Adobe Illustrator 26.0.0, SVG Export Plug-In . SVG Version: 6.00 Build 0)  -->
<svg version="1.1" id="Capa_1" xmlns="http://www.w3.org/2000/svg" xmlns:xlink="http://www.w3.org/1999/xlink" x="0px" y="0px"
	 viewBox="0 0 384 512" style="enable-background:new 0 0 384 512;" xml:space="preserve">
<style type="text/css">
	.st0{fill:#FFFFFF;}
	.st1{fill:#4E4F4E;}
	.st2{fill:#F7F7F9;}
</style>
<path class="st0" d="M19,67.3C19,32.6,47.2,4.4,81.9,4.4h220.2c34.7,0,62.9,28.2,62.9,62.9v377.5c0,34.7-28.2,62.9-62.9,62.9H81.9
	c-34.7,0-62.9-28.2-62.9-62.9V67.3z M144.8,444.7c0,8.6,7.1,15.7,15.7,15.7h62.9c8.7,0,15.7-7.1,15.7-15.7s-7.1-15.7-15.7-15.7
	h-62.9C151.9,429,144.8,436.1,144.8,444.7z M302.1,67.3H81.9v314.5h220.2V67.3z"/>
<g id="Capa_2">
	<path class="st1" d="M135,398c0,0-44,19-15,42s29,23,29,23l74,7l39-25.3L247,409l-41-11H135z"/>
	<polygon class="st2" points="76,67.3 69,381.8 322,387 316,67.3 	"/>
</g>
<g id="Capa_3">
	<path class="st1" d="M237.3,283.6c-1.9-3.2-11.7-18.9-13.8-21.4c-2-2.6-3.6-4.2-7.4-2.4c-3.7,1.8-13.2,5.2-16.1,6.2
		c-2.8,1-4.7,0.2-6.7-3c-11.6-18.8-18.5-32.3-17.8-58.8c0.2-7,5.9-3.1,18.2-11.2c2.1-1.4,2.7-3.4,2.9-5.3s3.2-20,4.4-27.4
		c1.1-7.2-1.7-7.8-3.4-9c-1.6-1.1-3.5-2.2-5.4-3.4c-1.9-1.1-5.5-2.3-9.9-0.9c-4.4,1.4-16.1,4.1-24.9,18.8c-8.8,14.6-7,34.9-6.8,37.7
		c0.3,2.8,1,44.1,22,74.3c13.3,19.1,20,24,29.9,28.1c6,2.5,21.3,3,27.8-2.5c6.6-5.5,10.1-11.5,10.1-13.1
		C240.7,288.6,239.3,286.7,237.3,283.6z"/>
</g>
<path d="M31,80.4c0-32.3,26.3-58.5,58.5-58.5h204.9c32.3,0,58.5,26.3,58.5,58.5v351.3c0,32.3-26.3,58.5-58.5,58.5H89.5
	c-32.3,0-58.5-26.3-58.5-58.5V80.4z M148.1,431.6c0,8,6.6,14.6,14.6,14.6h58.5c8.1,0,14.6-6.6,14.6-14.6s-6.6-14.6-14.6-14.6h-58.5
	C154.7,417,148.1,423.6,148.1,431.6z M294.5,80.4H89.5v292.7h204.9V80.4z"/>
</svg>
